<?xml version="1.0" standalone="no"?>
<!DOCTYPE svg PUBLIC "-//W3C//DTD SVG 20010904//EN"
 "http://www.w3.org/TR/2001/REC-SVG-20010904/DTD/svg10.dtd">
<svg version="1.0" xmlns="http://www.w3.org/2000/svg"
 width="829.000000pt" height="949.000000pt" viewBox="0 0 829.000000 949.000000"
 preserveAspectRatio="xMidYMid meet">

<g transform="translate(0.000000,949.000000) scale(0.100000,-0.100000)"
fill="#000000" stroke="none">
<path d="M3865 8089 c-278 -29 -572 -141 -805 -307 -248 -176 -518 -507 -633
-778 -141 -330 -209 -797 -187 -1284 4 -91 6 -166 5 -167 -1 -2 -25 7 -54 19
-39 17 -56 20 -69 12 -33 -21 -25 -56 38 -153 33 -52 60 -98 60 -102 0 -4 -8
-5 -19 -2 -21 5 -51 -21 -51 -45 0 -41 33 -120 192 -462 94 -201 173 -371 176
-379 3 -7 -16 3 -42 23 -52 39 -101 53 -143 39 -32 -11 -42 -43 -19 -62 11 -9
12 -18 3 -42 -9 -22 -9 -34 0 -48 14 -22 8 -31 -22 -31 -12 0 -34 -11 -49 -25
-30 -28 -35 -78 -11 -112 20 -29 78 -47 127 -39 31 5 45 3 59 -10 15 -14 28
-15 66 -9 81 14 122 8 191 -26 l67 -32 -30 -10 c-33 -11 -91 -51 -117 -82 -22
-25 -23 -78 -3 -95 14 -12 14 -15 0 -30 -8 -9 -15 -26 -15 -38 0 -20 5 -22 68
-22 65 0 68 -1 79 -29 25 -68 127 -87 202 -38 22 15 50 27 61 27 27 0 194 -37
253 -56 l47 -16 -25 -30 c-21 -25 -25 -40 -25 -92 0 -34 -5 -67 -10 -72 -14
-14 -2 -44 19 -45 9 -1 25 -3 36 -3 11 -1 38 -10 59 -20 48 -22 72 -16 127 30
50 42 133 84 166 84 21 0 22 -5 25 -72 l3 -73 55 -3 c30 -2 59 -7 64 -13 6 -5
24 -9 42 -9 30 0 33 -3 52 -57 l19 -58 228 0 229 0 21 55 c16 41 27 56 45 60
16 4 26 14 28 28 3 19 9 22 53 22 l49 0 0 45 c0 25 4 45 9 45 5 0 37 -21 72
-47 60 -45 68 -48 124 -48 71 0 202 39 228 67 10 12 17 36 17 60 0 46 -33 85
-80 94 -34 7 -39 18 -12 29 61 25 189 65 226 70 24 4 77 1 118 -5 101 -17 180
-1 220 44 16 17 49 51 73 76 50 52 65 78 65 115 0 36 -26 82 -50 90 -30 10
-25 20 27 54 60 40 116 55 173 46 123 -18 118 -19 143 9 16 17 35 26 54 26 43
0 67 30 59 74 -13 70 -135 139 -218 122 -45 -9 -21 15 44 44 129 57 138 62
144 84 3 12 18 27 34 33 40 15 53 52 37 100 -23 70 -112 104 -181 68 -20 -11
-27 -11 -23 -2 2 6 26 82 52 167 26 85 67 208 91 273 24 65 44 123 44 128 0 5
-9 18 -20 29 -19 19 -19 22 -4 53 9 17 50 64 92 102 65 61 75 75 75 104 0 21
-7 39 -18 47 -24 18 -93 17 -125 -1 -14 -8 -28 -14 -31 -15 -4 0 -6 123 -6
273 0 583 -76 926 -287 1296 -89 155 -165 258 -286 384 -262 274 -559 437
-934 512 -215 43 -435 54 -631 34z m396 -39 c685 -70 1188 -428 1495 -1065 34
-71 76 -172 93 -223 88 -270 135 -714 113 -1067 -9 -144 -11 -152 -42 -202
-18 -29 -35 -53 -38 -53 -2 0 -2 87 2 193 8 209 -5 505 -29 694 -34 259 -82
434 -170 620 -284 601 -737 934 -1375 1013 -123 15 -389 12 -505 -5 -482 -72
-906 -374 -1179 -839 -146 -248 -230 -551 -266 -966 -12 -134 -15 -655 -4
-683 10 -27 -9 -18 -39 18 -28 33 -28 37 -37 217 -20 436 35 887 146 1185 130
352 409 701 724 905 229 149 453 227 755 262 68 7 260 5 356 -4z m149 -145
c304 -55 588 -190 809 -384 245 -215 471 -601 550 -940 57 -245 91 -661 77
-953 l-8 -158 -27 0 c-15 0 -31 -4 -36 -9 -6 -6 -10 98 -11 282 -2 645 -82
1000 -303 1357 -237 380 -582 624 -1006 709 -389 78 -745 41 -1048 -110 -246
-122 -450 -308 -622 -564 -221 -330 -315 -745 -315 -1395 l0 -245 -40 -1 -39
-2 -3 142 c-7 316 16 628 62 870 78 401 224 680 505 962 71 71 167 156 212
187 197 138 409 224 648 263 114 19 470 12 595 -11z m-330 -390 c15 -19 39
-19 59 -1 10 8 30 12 51 9 l36 -5 -20 -43 -20 -43 -74 -6 c-41 -4 -75 -6 -76
-4 -1 2 -11 24 -23 50 l-22 47 27 4 c15 2 32 5 38 6 6 0 17 -6 24 -14z m343
-21 c16 -6 14 -11 -20 -46 l-38 -39 -65 7 c-36 3 -66 8 -68 9 -2 2 6 22 18 45
l22 43 66 -6 c37 -3 75 -9 85 -13z m-453 -34 c23 -45 27 -42 -64 -59 -33 -6
-63 -8 -67 -4 -5 5 -15 25 -23 45 l-16 37 38 6 c20 4 44 8 52 10 48 10 60 4
80 -35z m649 -20 l35 -17 -37 -12 c-19 -7 -47 -21 -60 -31 -23 -18 -26 -18
-78 -3 -30 10 -56 18 -58 20 -7 5 24 36 54 55 35 21 88 17 144 -12z m-842 -26
l23 -40 -55 -18 -54 -17 -41 27 c-40 27 -51 44 -27 44 6 0 35 11 62 24 28 14
55 23 60 22 6 -1 20 -20 32 -42z m478 -34 c201 -23 428 -111 389 -150 -6 -6
-40 5 -90 30 -192 94 -441 112 -686 49 -165 -42 -233 -90 -211 -148 9 -26 7
-29 -31 -50 -23 -12 -70 -46 -105 -76 -58 -49 -66 -53 -81 -40 -43 39 -102 7
-181 -98 -86 -114 -160 -285 -220 -507 l-12 -45 -9 40 c-7 32 -4 56 18 125
109 350 309 603 594 749 138 71 251 103 435 125 60 6 102 6 190 -4z m541 -11
c18 -5 40 -19 49 -29 18 -20 17 -20 -36 -20 -34 0 -67 -7 -89 -19 l-35 -18
-54 30 c-47 27 -51 31 -35 41 64 35 120 40 200 15z m-1190 -25 l35 -27 -58
-32 c-52 -28 -60 -30 -83 -18 -14 7 -35 13 -47 13 -13 0 -23 3 -23 8 0 5 125
79 138 82 2 0 19 -12 38 -26z m633 -40 c18 -4 30 -12 28 -18 -18 -49 -17 -54
43 -131 33 -43 60 -81 60 -85 0 -4 -13 -13 -29 -19 -25 -11 -33 -9 -66 13 -21
14 -44 26 -51 26 -31 0 -63 25 -79 61 -10 21 -24 40 -32 43 -25 10 -26 -23 -1
-73 22 -44 23 -53 12 -95 -9 -36 -9 -49 -1 -56 7 -5 30 -25 52 -44 l40 -35
-18 -31 c-9 -18 -15 -36 -11 -41 13 -21 35 -5 79 56 29 41 53 65 65 65 16 0
119 -19 187 -35 13 -3 20 -11 17 -19 -4 -11 -20 -9 -88 7 -120 29 -124 27
-181 -100 -27 -60 -51 -111 -54 -115 -3 -4 -41 24 -84 63 -43 38 -84 69 -92
69 -26 0 -16 -32 18 -61 l32 -28 -30 -25 c-16 -14 -54 -42 -82 -62 -46 -33
-60 -37 -115 -38 l-62 -1 -7 39 c-12 70 -51 67 -42 -4 9 -64 -64 -128 -179
-160 -62 -16 -73 -32 -71 -93 2 -41 -3 -57 -22 -83 -13 -17 -27 -43 -30 -57
-6 -23 -9 -25 -31 -15 -30 14 -30 29 0 59 32 33 45 60 56 120 8 39 21 63 60
107 39 43 49 62 44 77 -4 11 -9 41 -11 68 -4 42 -8 47 -29 47 -28 0 -60 -29
-75 -68 -6 -14 -14 -75 -20 -133 -5 -59 -13 -118 -18 -132 -12 -31 -38 -57
-58 -57 -14 0 -13 4 4 23 25 27 43 61 43 81 0 29 -26 16 -58 -29 -34 -48 -43
-53 -61 -31 -9 11 -5 18 23 34 41 24 62 61 77 134 24 111 78 181 161 207 20 7
84 20 143 31 58 10 109 21 112 24 3 3 3 12 0 20 -7 17 -3 18 -171 -14 -117
-23 -155 -37 -199 -79 -26 -24 -29 -25 -38 -8 -17 30 -34 19 -98 -59 -35 -42
-65 -74 -67 -71 -8 7 52 122 99 192 56 83 209 238 287 290 78 52 175 96 213
97 16 1 37 -8 49 -20 21 -20 21 -22 4 -66 -24 -62 -18 -110 12 -114 22 -3 23
-1 18 26 -14 63 78 227 158 280 19 13 54 30 78 37 53 17 49 16 87 9z m-766
-73 c4 -4 -18 -28 -50 -52 -57 -44 -59 -45 -115 -40 l-57 6 64 50 c58 46 67
50 107 47 24 -2 47 -7 51 -11z m1050 -86 l122 -54 3 -48 c4 -62 -10 -110 -47
-153 l-30 -35 12 32 c7 21 8 36 2 41 -13 12 -220 52 -265 52 -27 0 -39 -6 -54
-29 l-20 -29 -34 34 c-19 19 -39 34 -44 34 -8 0 -2 58 7 68 6 7 81 -30 103
-50 l23 -22 64 32 c36 17 65 37 65 43 0 6 -22 40 -50 75 -27 35 -50 66 -50 70
0 14 80 -11 193 -61z m-573 48 c0 -5 -6 -16 -14 -25 -10 -13 -15 -15 -24 -6
-17 17 -15 26 6 31 28 7 32 7 32 0z m-677 -158 c-33 -37 -66 -65 -78 -65 -11
0 -48 -6 -82 -13 l-62 -13 41 57 c56 80 66 87 128 92 125 8 119 15 53 -58z
m1539 -69 c159 -61 359 -154 416 -192 2 -1 0 -9 -5 -18 -7 -13 -18 -9 -68 24
-33 22 -67 40 -75 40 -9 0 -33 9 -53 19 -27 14 -56 19 -107 18 -73 -2 -75 -1
-61 22 5 8 7 20 4 27 -5 12 -130 71 -137 63 -1 -2 -17 -49 -35 -104 -47 -147
-63 -170 -166 -242 -96 -66 -283 -163 -353 -184 -23 -7 -48 -19 -55 -27 -10
-12 -7 -19 18 -36 54 -38 102 -94 126 -145 12 -28 28 -51 34 -51 7 0 67 25
134 55 301 137 604 226 866 256 55 6 107 14 115 19 29 14 5 25 -57 25 -61 0
-62 0 -44 20 10 11 22 27 27 36 8 15 22 9 107 -41 l98 -57 -67 -7 c-354 -36
-801 -165 -1119 -322 -60 -30 -110 -54 -111 -54 -1 0 -16 29 -33 65 -50 101
-191 218 -191 158 0 -10 16 -29 35 -42 67 -45 145 -159 145 -210 0 -11 5 -23
11 -26 6 -4 63 20 127 53 273 140 629 255 964 311 242 41 328 44 328 12 0 -5
-24 -12 -52 -15 -106 -14 -546 -97 -648 -122 -277 -68 -564 -186 -757 -311
-20 -14 -23 -11 -58 44 -49 77 -121 150 -163 164 -18 6 -49 8 -68 4 -42 -7
-56 -34 -74 -135 -27 -156 -146 -691 -165 -747 -6 -18 -131 19 -234 68 l-85
40 26 26 27 26 100 -38 c118 -44 120 -43 150 48 37 114 151 621 151 673 0 26
-32 14 -94 -35 -122 -97 -178 -132 -193 -120 -7 6 -13 15 -13 20 0 4 138 101
308 215 686 463 833 578 882 687 11 23 20 52 20 65 0 12 2 22 5 22 2 0 55 -20
117 -44z m-1650 -73 c-10 -15 -29 -47 -41 -70 -17 -35 -27 -43 -58 -49 -21 -4
-55 -13 -75 -20 -21 -7 -38 -10 -38 -6 0 10 55 102 77 130 13 15 39 27 83 36
36 7 67 12 69 10 2 -1 -6 -15 -17 -31z m1648 -11 c0 -4 -25 -34 -54 -67 l-55
-60 26 82 27 82 28 -15 c15 -8 28 -18 28 -22z m-414 -20 c5 -4 16 -22 24 -40
11 -29 11 -35 -1 -43 -23 -14 -26 -11 -33 27 -4 19 -10 42 -13 50 -6 15 5 18
23 6z m118 -59 c-31 -24 -39 -21 -49 18 l-7 27 42 -11 42 -12 -28 -22z m-149
-63 c4 -7 20 -10 36 -8 17 3 26 2 22 -2 -31 -28 -350 -249 -635 -440 -303
-204 -343 -228 -362 -218 -44 23 -154 140 -180 191 -51 101 -60 238 -16 252
11 4 48 37 82 75 64 72 86 82 63 27 -7 -17 -18 -58 -25 -90 -14 -68 -41 -103
-90 -115 -19 -4 -36 -15 -38 -24 -4 -22 51 -82 93 -102 28 -14 35 -23 35 -46
0 -26 7 -33 50 -55 28 -14 55 -23 60 -20 4 3 11 18 15 34 3 16 19 46 35 67 19
25 30 51 30 73 l0 33 28 -17 c15 -10 38 -28 52 -40 36 -33 124 -44 152 -19 26
24 51 72 43 84 -3 6 -29 10 -56 10 -39 0 -58 6 -85 27 l-36 27 32 16 c17 9 49
34 71 55 38 37 43 39 112 40 82 2 105 11 201 85 l65 50 35 -31 c57 -50 73 -40
131 79 l50 104 11 -45 c6 -24 15 -50 19 -57z m535 65 c-7 -8 -23 -15 -35 -15
-12 0 -34 -9 -49 -21 -22 -17 -26 -28 -26 -70 0 -70 25 -93 92 -87 54 6 68 18
68 59 0 34 -21 51 -57 47 -20 -2 -28 -9 -28 -23 0 -15 6 -19 23 -17 31 3 24
-22 -7 -26 -30 -5 -51 15 -51 49 0 32 23 49 69 49 38 0 71 -40 71 -87 0 -100
-158 -116 -204 -19 -43 91 13 169 128 175 15 1 16 -2 6 -14z m120 -16 c0 -4
-4 -11 -10 -14 -16 -10 -11 -35 7 -35 9 0 27 9 39 21 l22 20 111 -73 c61 -40
111 -78 111 -85 0 -7 -14 -28 -30 -46 l-30 -35 -43 15 c-25 9 -58 13 -84 9
-29 -4 -45 -1 -53 9 -17 21 -40 19 -40 -3 0 -15 -16 -22 -82 -36 -46 -10 -118
-29 -161 -42 -42 -14 -82 -22 -87 -19 -6 4 -22 29 -35 56 -14 27 -31 49 -39
49 -7 0 -49 -24 -93 -52 -44 -29 -112 -71 -151 -93 -40 -22 -72 -46 -72 -53 0
-20 39 -92 50 -92 6 0 59 21 118 46 214 91 479 169 645 189 90 11 67 -8 -34
-28 -194 -38 -424 -114 -634 -209 -60 -27 -115 -52 -121 -54 -6 -3 -25 19 -42
49 -16 29 -46 67 -65 84 l-35 31 46 17 c112 42 277 137 402 229 l74 56 12 -40
c28 -93 73 -124 171 -118 53 3 68 9 91 31 24 24 27 35 27 93 0 61 -2 68 -31
94 -29 25 -30 29 -17 43 12 12 21 13 39 5 13 -6 24 -15 24 -19z m-1955 -76
c-4 -10 -22 -58 -40 -107 -30 -82 -33 -88 -44 -67 -20 37 -35 19 -56 -74 l-20
-88 -69 -20 c-67 -18 -70 -18 -83 -1 -18 25 -16 31 10 38 12 3 36 17 52 31 27
22 28 26 14 38 -15 11 -13 16 17 51 31 36 44 64 58 129 5 22 19 34 69 58 72
34 103 38 92 12z m438 -166 l-26 -32 6 42 c4 23 13 54 19 69 l13 27 7 -38 c7
-32 4 -41 -19 -68z m1127 -56 l19 -39 -28 -10 c-26 -9 -29 -7 -44 24 -16 32
-16 34 6 49 12 8 23 15 24 15 1 0 12 -18 23 -39z m-92 -46 c15 -33 15 -32 -7
-38 -24 -6 -50 41 -29 54 20 13 24 11 36 -16z m-901 -55 c37 -32 53 -40 86
-40 34 0 38 -2 27 -15 -20 -24 -77 -8 -133 37 -27 21 -53 38 -58 38 -6 0 -7 5
-4 10 12 19 37 10 82 -30z m828 19 c10 -31 -16 -45 -32 -16 -8 17 -9 24 0 29
19 12 25 9 32 -13z m-67 -41 c4 -20 -29 -33 -39 -16 -9 15 9 40 25 35 6 -2 12
-11 14 -19z m1175 -47 c40 11 50 11 42 0 -3 -5 -19 -12 -35 -16 -36 -8 -37
-16 -8 -55 12 -16 19 -32 16 -36 -4 -3 -17 10 -30 30 -13 20 -26 36 -30 36 -3
0 -16 -16 -28 -36 -29 -46 -39 -36 -11 11 11 20 21 38 21 41 0 2 -13 4 -29 4
-17 0 -33 5 -37 12 -5 8 4 9 34 4 42 -6 42 -6 43 26 l1 33 9 -32 c9 -30 11
-31 42 -22z m-2500 -378 l83 -372 -48 -10 c-26 -6 -66 -14 -88 -17 l-40 -7 1
404 c1 222 3 397 6 389 2 -8 41 -182 86 -387z m-192 319 c-33 -119 -195 -249
-286 -226 -31 8 -31 16 -3 65 14 26 39 47 78 68 66 36 81 58 45 67 -24 6 -39
29 -30 44 3 4 27 11 54 15 27 4 71 12 98 19 56 15 60 10 44 -52z m55 -720 c-3
-2 -41 4 -86 14 -64 14 -81 21 -78 33 3 9 40 176 84 372 l79 357 3 -386 c1
-212 0 -387 -2 -390z m2138 383 c15 -49 40 -131 56 -182 39 -122 31 -140 -56
-127 -40 6 -44 4 -55 -20 -9 -20 -10 -35 -1 -63 9 -30 9 -40 -3 -53 -12 -14
-27 -15 -101 -7 -90 9 -100 7 -91 -17 4 -10 28 -16 74 -21 76 -7 97 -15 101
-39 3 -12 -4 -16 -28 -16 l-31 0 6 -82 c5 -63 3 -87 -7 -101 -16 -22 -110 -36
-238 -37 -69 0 -95 -4 -130 -22 -62 -32 -98 -81 -111 -153 -17 -87 -18 -380
-1 -397 22 -22 31 9 25 79 -4 42 -2 63 5 63 15 0 70 -57 86 -89 19 -37 36
-123 36 -185 0 -39 4 -55 15 -60 24 -9 28 17 22 112 -8 117 -50 203 -119 247
-44 28 -64 65 -35 65 27 -1 94 -39 119 -68 53 -63 105 -258 94 -354 -6 -60 9
-108 35 -108 21 0 25 21 9 50 -13 25 -3 50 26 61 32 11 31 39 0 39 -17 0 -26
7 -30 27 -5 17 -3 29 6 34 19 13 62 11 76 -3 17 -17 15 -63 -3 -78 -19 -16
-20 -50 -1 -50 17 0 56 46 56 66 0 18 51 19 72 2 37 -30 37 -49 0 -100 -19
-27 -52 -63 -73 -80 -21 -17 -41 -38 -44 -46 -9 -25 24 -44 63 -37 19 4 32 2
32 -5 0 -5 -16 -10 -35 -10 -19 0 -35 -2 -35 -4 0 -2 -3 -11 -6 -20 -5 -12 1
-16 23 -16 41 0 45 -7 23 -48 -15 -27 -26 -36 -46 -37 -36 0 -42 -22 -10 -35
14 -5 26 -11 26 -14 0 -2 3 -11 6 -20 5 -12 -1 -16 -24 -16 -24 0 -31 5 -36
26 -5 17 -12 24 -24 22 -13 -3 -16 -12 -14 -45 2 -22 -1 -44 -6 -47 -14 -8
-45 31 -38 49 10 28 -5 75 -25 75 -17 0 -19 -6 -15 -45 2 -25 2 -45 1 -45 -1
0 -12 9 -25 20 -13 11 -30 20 -38 20 -9 0 1 14 24 35 l39 35 -24 21 c-14 11
-37 23 -53 26 -22 4 -26 8 -17 19 13 15 8 56 -7 61 -6 2 -16 -8 -22 -22 -7
-14 -20 -25 -31 -25 -27 0 -38 -21 -18 -35 15 -11 14 -13 -8 -23 -21 -10 -27
-8 -40 11 -25 35 -12 157 16 157 19 0 22 -34 6 -62 -22 -38 -21 -48 2 -48 26
0 42 23 48 69 8 56 27 70 65 48 39 -22 58 -22 58 3 0 22 -46 50 -82 50 -13 0
-33 -7 -44 -14 -19 -14 -36 -8 -205 73 -101 49 -296 139 -434 201 -137 63
-251 115 -253 116 -1 1 2 12 8 25 l11 24 132 -64 c73 -35 226 -106 341 -157
114 -52 238 -110 274 -129 64 -34 92 -35 79 -3 -6 16 -164 95 -347 175 -69 30
-205 93 -303 140 -174 85 -177 87 -158 105 11 10 23 35 26 55 3 21 11 47 17
57 22 40 27 79 18 123 -10 44 -10 45 40 101 65 73 98 141 111 228 6 38 17 88
25 112 8 23 14 78 14 120 0 104 10 112 67 51 25 -27 61 -54 79 -61 23 -8 34
-18 34 -33 1 -55 94 -195 131 -195 22 0 27 35 6 43 -21 8 -86 109 -93 145 -5
25 -3 32 9 32 26 0 77 50 77 76 0 33 -22 30 -48 -6 -19 -25 -30 -30 -62 -30
-35 0 -47 7 -93 52 l-52 51 40 12 c37 11 42 10 64 -11 27 -27 61 -32 61 -8 0
9 -9 23 -21 33 -21 17 -21 17 19 53 39 35 69 46 184 63 38 6 65 32 112 105 12
19 52 58 88 85 36 28 79 66 94 85 16 19 33 38 39 42 14 10 159 55 270 83 l90
23 6 -131 c5 -99 14 -154 33 -222z m176 235 c0 -33 1 -34 48 -21 19 6 32 6 32
0 0 -5 -12 -12 -27 -15 -44 -10 -44 -13 -18 -52 25 -37 26 -61 1 -26 -45 62
-40 60 -66 19 -13 -21 -25 -34 -28 -27 -2 6 5 23 14 37 15 23 15 28 3 36 -8 5
-22 9 -31 9 -10 0 -18 5 -18 10 0 7 13 8 35 4 34 -6 35 -5 35 25 0 17 5 31 10
31 6 0 10 -13 10 -30z m-1299 -16 c18 -9 29 -22 27 -31 -4 -22 -67 -70 -102
-79 l-29 -7 7 44 c8 51 30 89 52 89 8 0 29 -7 45 -16z m602 -34 c-32 -29 -100
-54 -131 -48 -14 3 139 77 158 77 3 0 -9 -13 -27 -29z m1097 -30 c0 -28 1 -28
32 -19 40 11 38 11 38 0 0 -5 -13 -12 -30 -16 -16 -4 -30 -9 -30 -12 0 -4 11
-21 26 -40 14 -18 21 -33 15 -33 -5 0 -19 14 -31 30 -12 17 -24 30 -28 30 -4
0 -15 -14 -25 -31 -10 -18 -20 -29 -24 -26 -3 4 2 18 11 31 22 35 20 46 -8 46
-14 0 -28 5 -32 12 -5 8 3 9 29 5 37 -6 37 -5 37 29 0 21 4 33 10 29 6 -3 10
-19 10 -35z m-2810 1 c-32 -112 -223 -321 -294 -321 -26 0 -49 34 -41 61 4 10
14 19 23 19 32 1 102 39 102 56 0 17 -11 17 -77 -4 -42 -14 -43 1 -4 55 26 36
34 41 86 47 66 7 114 30 170 80 22 19 41 35 42 36 1 0 -2 -13 -7 -29z m850
-172 c-44 -216 -97 -422 -114 -444 -11 -15 -19 -14 -81 10 -70 26 -102 45 -76
45 8 0 41 -10 73 -22 36 -13 63 -17 68 -12 21 21 132 494 123 522 -7 20 -22
14 -89 -33 -34 -25 -65 -41 -68 -37 -3 5 35 37 84 72 50 34 95 69 101 77 7 7
13 12 15 11 1 -2 -15 -87 -36 -189z m364 133 c14 -21 26 -41 26 -44 0 -13 -64
-30 -142 -37 -47 -4 -90 -11 -96 -15 -7 -4 -12 -1 -12 9 0 8 10 19 23 24 80
31 109 47 133 72 15 16 31 29 35 29 3 0 18 -17 33 -38z m274 -34 c-8 -22 -55
-50 -79 -46 -22 3 -20 6 21 30 50 30 64 34 58 16z m79 -39 c-40 -64 -57 -75
-133 -84 -61 -7 -97 -23 -174 -82 -52 -40 -98 -43 -172 -11 -62 26 -51 33 66
42 97 8 114 14 164 57 28 24 41 29 88 29 50 0 59 3 90 34 19 19 34 41 34 50 0
12 10 16 35 16 l34 0 -32 -51z m-287 -45 c0 -27 -53 -46 -149 -53 -84 -6 -103
-11 -133 -34 l-34 -27 4 29 c8 55 40 73 148 83 53 4 108 15 122 22 27 14 41 7
42 -20z m-494 -21 c-16 -88 -89 -373 -96 -373 -11 0 -80 30 -80 35 0 2 9 19
20 38 34 57 70 177 70 232 0 49 2 54 38 78 50 35 55 33 48 -10z m-858 -144
c-35 -161 -52 -193 -127 -240 l-46 -30 -8 33 c-4 18 -21 45 -38 59 l-31 27 41
33 c43 34 54 69 24 69 -10 0 5 13 34 30 28 16 79 61 114 99 35 38 65 69 66 67
2 -1 -11 -68 -29 -147z m2626 56 c7 -28 22 -31 50 -10 22 17 36 19 36 6 0 -5
-13 -14 -30 -21 -38 -16 -38 -23 2 -54 18 -14 30 -28 26 -31 -3 -3 -19 6 -36
20 -16 14 -32 25 -35 25 -3 0 -11 -16 -17 -35 -6 -19 -16 -35 -21 -35 -5 0 -4
11 1 26 18 46 13 56 -20 49 -17 -4 -30 -2 -30 3 0 5 14 12 31 16 28 5 30 8 24
36 -8 36 10 41 19 5z m-1538 -66 c-38 -30 -42 -75 -15 -187 31 -132 29 -212
-4 -286 -50 -109 -127 -179 -222 -202 -26 -6 -21 0 33 45 75 63 135 150 152
222 15 60 8 159 -16 239 -21 70 -12 121 28 171 26 32 34 37 50 28 18 -10 18
-11 -6 -30z m70 -35 c-24 -25 -26 -33 -27 -118 l-1 -91 -20 84 c-27 111 -18
129 71 150 2 1 -8 -11 -23 -25z m2214 -151 c0 -10 -36 -51 -79 -93 -59 -56
-82 -86 -91 -117 -7 -23 -24 -52 -36 -64 l-24 -22 0 45 c0 97 43 181 123 239
46 34 107 41 107 12z m-3905 -63 c79 -54 85 -68 84 -189 0 -84 -3 -101 -11
-81 -42 99 -93 198 -127 249 -23 33 -41 62 -41 65 0 10 51 -14 95 -44z m3147
-12 c30 4 39 2 34 -6 -4 -7 -20 -12 -35 -12 -40 0 -43 -8 -20 -51 11 -22 16
-39 11 -39 -5 0 -16 16 -25 35 -20 43 -30 44 -57 4 -12 -16 -25 -28 -28 -24
-3 3 4 19 16 35 12 16 22 32 22 35 0 3 -15 12 -32 20 l-33 15 43 -6 c39 -5 42
-4 42 18 0 39 15 43 18 5 3 -35 3 -35 44 -29z m-1618 -55 c1 -66 -3 -96 -16
-118 l-17 -30 -1 45 c-1 25 -5 54 -9 64 -10 26 20 149 33 136 5 -5 10 -49 10
-97z m-886 75 l62 -11 0 -194 0 -193 -34 0 c-33 0 -34 1 -45 63 -14 69 -75
311 -87 341 -6 17 -4 18 17 13 13 -4 52 -12 87 -19z m248 -75 c-14 -48 -35
-131 -46 -183 -11 -52 -22 -105 -25 -117 -4 -19 -12 -23 -40 -23 l-35 0 2 192
3 192 80 16 c44 9 82 15 83 14 2 -1 -8 -42 -22 -91z m-666 17 c18 -10 18 -12
-3 -67 -20 -52 -22 -77 -22 -248 1 -162 4 -203 23 -277 44 -177 185 -508 216
-508 24 0 20 19 -25 116 -66 142 -117 278 -146 382 -21 80 -27 126 -30 259 -5
145 -3 169 16 232 26 86 50 106 117 98 25 -2 50 -9 55 -14 6 -6 -10 -32 -42
-69 -72 -81 -109 -164 -116 -256 -4 -56 -1 -78 10 -93 9 -11 18 -17 22 -13 4
3 8 42 9 85 3 94 34 167 101 240 60 65 59 34 -1 -47 -62 -84 -84 -122 -84
-142 0 -26 19 -22 48 9 17 18 27 23 30 15 2 -7 -12 -31 -32 -53 -35 -38 -39
-59 -13 -59 7 0 29 16 50 35 26 24 37 29 37 18 0 -8 -20 -33 -44 -54 -55 -49
-68 -80 -64 -160 2 -49 7 -64 18 -64 11 0 15 13 15 53 1 66 24 92 89 99 25 3
46 3 46 -1 0 -4 -22 -34 -50 -67 -46 -55 -50 -64 -50 -112 1 -123 85 -453 156
-606 25 -55 54 -94 116 -159 46 -47 74 -82 64 -78 -44 15 -169 28 -220 22 -33
-5 -70 -17 -91 -32 -41 -28 -45 -29 -45 -11 0 21 65 78 105 92 45 15 87 6 121
-26 27 -26 61 -20 45 8 -5 10 -44 56 -86 103 -164 183 -181 208 -269 401 -46
101 -134 292 -196 424 -108 230 -155 344 -146 352 9 10 45 -19 64 -49 11 -18
30 -62 43 -98 25 -73 37 -92 53 -87 8 3 10 58 7 178 l-3 175 36 32 c41 36 40
36 66 22z m3223 -14 c39 -16 94 -76 103 -113 18 -70 -14 -306 -61 -447 l-23
-71 -1 95 c-1 70 -6 106 -21 137 -19 43 -69 83 -102 83 -25 0 -23 37 2 45 24
7 56 -9 70 -35 15 -28 40 -25 40 5 0 16 -12 33 -36 52 -82 63 -95 77 -88 96 5
15 14 18 38 13 63 -12 106 -102 106 -221 0 -67 6 -81 27 -64 18 16 17 110 -2
184 -21 78 -58 123 -135 162 -100 50 -103 66 -19 82 63 13 66 12 102 -3z m167
-26 c52 -52 -3 -413 -105 -685 -34 -89 -33 -119 2 -97 17 11 86 223 128 393
32 133 76 238 103 247 19 6 15 -19 -17 -95 -16 -39 -62 -178 -102 -309 -40
-131 -83 -252 -95 -269 -12 -16 -77 -118 -145 -225 -108 -171 -137 -208 -234
-305 -72 -73 -129 -121 -165 -139 l-55 -28 75 70 c125 116 370 399 370 428 0
23 -37 16 -54 -11 -74 -114 -359 -408 -489 -506 -75 -57 -175 -115 -183 -107
-2 3 29 27 69 54 188 131 513 454 623 620 54 81 142 269 183 390 33 98 62 262
68 379 5 98 3 116 -15 157 -11 26 -18 49 -14 52 11 12 32 6 52 -14z m-2460
-77 c0 -3 -34 -38 -74 -77 -64 -61 -76 -68 -80 -52 -8 32 16 69 63 95 24 13
46 32 48 42 4 15 9 16 24 8 10 -5 19 -12 19 -16z m64 -19 c31 -12 15 -43 -50
-101 -69 -61 -94 -96 -94 -135 l-1 -23 -14 25 c-32 55 -12 101 64 154 22 16
46 41 53 57 14 31 17 33 42 23z m222 -77 c-13 -46 -24 -60 -73 -98 -32 -25
-82 -60 -112 -79 -64 -40 -87 -83 -97 -180 -5 -58 -4 -68 16 -93 12 -15 44
-39 71 -52 27 -14 49 -29 49 -34 0 -4 -10 -16 -21 -27 -19 -16 -23 -17 -27 -4
-9 26 -57 64 -98 79 -21 7 -45 18 -51 23 -21 17 -15 57 17 117 16 31 34 74 40
96 15 63 44 100 109 145 61 41 91 81 91 120 0 18 4 20 39 14 34 -5 40 -3 46
16 4 12 9 19 12 16 3 -2 -2 -29 -11 -59z m-130 38 c12 -29 -7 -66 -47 -93 -74
-50 -112 -86 -130 -127 l-19 -40 0 41 c0 49 22 81 85 124 25 18 51 46 62 70
19 41 39 51 49 25z m1804 -103 c35 -46 50 -74 47 -89 -5 -30 -3 -32 81 -82 77
-45 89 -62 28 -40 -31 11 -38 11 -56 -6 -13 -12 -20 -31 -20 -56 l0 -38 -42
19 c-53 24 -72 25 -93 4 -11 -11 -14 -25 -10 -45 l7 -29 -74 -1 c-40 -1 -167
-4 -283 -8 -195 -7 -215 -6 -277 12 l-68 21 73 48 c103 69 145 83 201 69 79
-20 112 -15 154 23 21 19 51 59 67 88 54 101 115 189 138 197 34 13 71 -11
127 -87z m-2120 -97 c23 -25 24 -27 10 -68 -19 -54 -67 -87 -126 -87 -42 0
-44 1 -44 30 0 17 3 30 8 30 4 0 27 27 52 60 24 33 52 60 61 60 8 0 26 -11 39
-25z m2373 -10 c45 -29 58 -73 58 -197 0 -156 -7 -191 -57 -289 -55 -107 -82
-144 -48 -64 67 155 88 351 46 432 -23 44 -50 66 -121 103 -34 17 -41 24 -30
31 21 15 122 4 152 -16z m-2543 -10 c10 -12 10 -18 0 -30 -18 -22 -198 -22
-206 0 -4 8 -1 22 6 30 18 21 182 21 200 0z m653 -66 c1 -32 -4 -45 -22 -60
-13 -11 -32 -19 -43 -19 -38 0 -58 -19 -58 -55 0 -19 -4 -35 -9 -35 -11 0 -61
47 -61 58 0 14 21 28 51 35 14 4 38 16 53 28 22 17 27 28 24 58 -3 30 1 38 22
47 31 14 40 1 43 -57z m-112 -13 c-6 -7 -32 -19 -57 -26 -47 -13 -64 -33 -64
-72 0 -37 27 -66 91 -98 32 -17 59 -35 59 -40 0 -10 -40 -50 -50 -50 -3 0 -11
14 -17 30 -8 21 -25 36 -55 50 -69 30 -82 50 -74 112 14 103 40 130 136 141
30 3 49 -25 31 -47z m-288 -2 c18 -24 18 -26 -7 -76 -31 -62 -34 -127 -8 -151
9 -8 39 -25 66 -37 58 -24 55 -35 -8 -26 -49 8 -131 60 -120 77 12 19 6 90
-10 114 -15 22 -14 25 19 58 19 19 35 42 35 51 0 23 12 19 33 -10z m-463 -27
c0 -31 -4 -35 -40 -46 -29 -9 -40 -17 -40 -31 0 -24 14 -25 70 -5 50 18 254
21 312 5 40 -11 61 -49 48 -85 -7 -19 -18 -20 -201 -25 -164 -4 -194 -7 -194
-20 0 -13 31 -16 200 -21 110 -3 201 -6 202 -7 1 -1 9 -9 17 -18 22 -21 21
-71 -2 -83 -10 -6 -84 -6 -187 -2 -94 5 -173 6 -177 4 -5 -2 -8 -11 -8 -19 0
-8 3 -14 8 -15 4 0 78 -4 165 -8 173 -8 196 -16 183 -65 -8 -33 -49 -41 -177
-33 -64 4 -101 2 -105 -4 -13 -21 14 -29 120 -36 97 -5 109 -8 122 -29 19 -29
9 -70 -19 -78 -12 -3 -45 -6 -74 -6 -69 0 -103 -14 -103 -41 0 -18 4 -20 23
-14 42 14 110 18 103 6 -4 -6 -21 -11 -37 -11 -19 0 -39 -10 -56 -26 l-25 -25
-53 26 c-77 37 -146 117 -173 199 -27 81 -72 301 -72 349 0 29 11 49 55 101
53 63 91 96 107 96 5 0 8 -15 8 -33z m180 -2 c0 -24 -2 -25 -70 -25 -68 0 -70
1 -70 25 0 24 2 25 70 25 68 0 70 -1 70 -25z m2480 -40 c28 -34 -11 -338 -40
-320 -6 4 -10 15 -10 27 0 31 -69 94 -117 107 -46 13 -61 27 -45 43 17 17 55
1 102 -42 41 -38 70 -46 70 -19 0 7 -18 28 -41 48 -84 75 -112 102 -106 107 7
7 62 -21 104 -52 47 -35 67 -32 59 9 -19 100 -19 107 -4 107 9 0 21 -7 28 -15z
m70 -23 c13 -48 -3 -181 -31 -266 -44 -130 -135 -291 -224 -391 l-35 -40 39
85 c56 121 74 191 69 266 -4 66 -27 106 -73 124 -18 8 -18 9 5 9 64 2 104 -65
94 -155 -6 -51 -5 -56 12 -52 26 5 69 72 94 148 16 46 24 101 27 188 3 67 7
122 9 122 2 0 8 -17 14 -38z m-1900 -20 c0 -13 -30 -52 -41 -52 -10 0 -13 43
-2 53 9 10 43 9 43 -1z m1046 -123 c3 -5 -2 -9 -11 -9 -21 0 -55 18 -55 30 0
11 57 -8 66 -21z m104 -35 l25 -15 -25 7 c-14 3 -29 10 -34 15 -16 14 6 10 34
-7z m-70 -30 c0 -11 -8 -14 -27 -12 -39 4 -42 28 -4 28 21 0 31 -5 31 -16z
m1219 -8 c15 -8 33 -27 40 -42 11 -24 10 -30 -5 -41 -14 -10 -22 -8 -46 12
-16 14 -38 25 -49 25 -26 0 -129 -97 -129 -121 0 -31 22 -22 77 33 44 44 54
49 67 38 40 -32 13 -63 -88 -101 -44 -16 -76 -39 -124 -85 -69 -68 -93 -82
-65 -36 198 315 243 359 322 318z m-2596 -23 c37 -3 67 -9 67 -14 0 -5 -11
-16 -25 -25 -46 -30 -145 0 -145 44 0 10 6 12 18 7 9 -4 47 -10 85 -12z m1466
6 c17 -6 36 -20 42 -31 11 -20 9 -20 -27 -14 -36 7 -64 28 -64 48 0 11 11 10
49 -3z m-1181 -26 c34 -15 62 -34 62 -42 0 -23 -38 -76 -64 -90 -16 -9 -42
-12 -73 -8 -61 7 -96 42 -91 95 3 33 7 38 48 54 57 21 45 22 118 -9z m1311 -8
c39 -20 58 -67 42 -103 l-13 -27 -14 34 c-8 19 -23 41 -34 48 -11 8 -20 25
-20 39 0 28 2 29 39 9z m-203 -12 c20 -26 17 -43 -8 -52 -28 -11 -34 -6 -41
37 -6 28 -4 32 15 32 11 0 27 -8 34 -17z m-1466 -63 c0 -21 -37 -70 -53 -70
-13 0 -16 87 -3 108 10 16 56 -14 56 -38z m190 -63 c29 -26 31 -31 20 -52 -25
-46 -85 -57 -138 -25 -43 27 -55 60 -39 110 10 35 16 40 42 41 16 0 39 4 50 8
17 7 21 3 27 -23 3 -17 21 -44 38 -59z m395 42 c47 -21 85 -44 85 -49 0 -6 -9
-29 -20 -50 -21 -41 -63 -70 -100 -70 -38 0 -89 28 -104 59 -20 38 -20 70 0
121 19 47 14 47 139 -11z m995 36 c29 -8 70 -43 70 -60 0 -23 -74 -3 -102 27
-32 34 -36 52 -10 44 9 -2 28 -8 42 -11z m220 -10 c9 -11 10 -19 3 -26 -14
-14 -43 0 -43 22 0 23 23 25 40 4z m175 -2 c27 -27 13 -74 -72 -240 -63 -124
-75 -155 -65 -165 18 -18 29 -2 115 167 54 106 72 134 75 116 2 -14 -16 -65
-47 -127 -79 -162 -164 -279 -259 -355 l-54 -42 38 58 c77 121 130 269 123
343 -2 15 2 37 9 49 7 12 12 45 12 73 0 56 25 101 70 126 32 17 35 17 55 -3z
m-179 -73 c10 0 14 -13 14 -49 0 -53 -9 -64 -55 -75 -39 -10 -72 -41 -85 -82
-7 -19 -18 -34 -25 -34 -7 0 -22 -3 -32 -6 -11 -3 -7 5 13 23 17 15 38 42 47
59 9 17 23 37 32 44 12 10 15 23 10 51 -5 30 -2 42 15 59 12 12 28 19 37 16 8
-3 21 -6 29 -6z m-2675 -28 c41 -27 137 -124 180 -183 18 -26 18 -26 -46 8
-35 18 -89 42 -121 53 -56 20 -94 44 -94 62 0 5 11 13 25 18 22 8 24 13 15 29
-6 11 -18 25 -28 30 -15 9 -15 10 4 11 11 0 40 -13 65 -28z m1304 -82 c29 -24
16 -37 -41 -43 -30 -3 -66 -13 -79 -21 -22 -15 -25 -14 -40 6 -15 22 -20 92
-9 122 4 11 20 16 53 16 25 0 53 5 61 10 12 7 17 0 27 -34 7 -24 20 -49 28
-56z m418 41 c37 -17 67 -36 67 -41 0 -25 -30 -78 -55 -98 -48 -38 -123 -24
-150 27 -18 35 -20 95 -4 139 12 36 1 38 142 -27z m-853 28 c0 -7 16 -27 36
-46 35 -33 36 -35 19 -53 -24 -26 -40 -25 -63 5 -28 35 -52 33 -52 -6 0 -20
-4 -29 -12 -27 -9 3 -13 26 -13 66 l-1 61 36 4 c19 2 38 4 43 5 4 1 7 -3 7 -9z
m242 -151 c14 -20 13 -27 -8 -67 -13 -24 -24 -56 -24 -70 -1 -39 -16 -6 -24
51 -8 51 -49 98 -87 98 -19 0 -19 1 -2 25 12 16 28 25 48 25 17 1 39 5 50 9
17 7 21 3 26 -20 4 -16 13 -39 21 -51z m897 -15 c9 -5 -12 -55 -35 -82 -36
-43 -93 -44 -135 -2 -32 32 -37 68 -19 133 l11 37 87 -42 c48 -23 89 -43 91
-44z m-475 42 c4 -19 18 -47 31 -63 l24 -29 -19 -31 c-28 -46 -53 -42 -67 11
-8 30 -25 56 -53 80 l-40 37 27 0 c16 0 39 7 53 14 36 20 37 20 44 -19z m1950
7 c36 -21 71 -66 62 -81 -12 -19 -61 -12 -96 14 -38 28 -111 34 -169 14 -39
-14 -40 -46 -1 -41 109 14 115 14 143 -8 42 -34 21 -47 -47 -30 -103 25 -208
-5 -288 -81 -23 -21 -50 -41 -62 -45 -17 -5 -14 1 15 32 19 22 54 62 77 90 79
97 216 170 297 159 22 -3 53 -14 69 -23z m-814 -24 c-1 -40 -20 -111 -47 -170
l-26 -58 -28 37 c-33 40 -36 55 -14 73 10 9 15 9 15 1 0 -6 9 -11 20 -11 21 0
29 33 10 45 -17 10 -11 51 11 79 26 33 59 35 59 4z m-2609 -31 c62 -27 176
-102 144 -94 -59 15 -86 17 -129 7 -57 -12 -82 -1 -66 30 12 23 13 50 2 50 -5
0 -25 -16 -45 -35 -20 -19 -45 -35 -56 -35 -29 0 -69 20 -76 38 -26 70 106 92
226 39z m872 -3 c58 -8 74 -26 87 -95 6 -33 18 -61 31 -71 19 -16 44 -77 34
-86 -7 -7 -74 38 -90 61 -9 13 -15 44 -15 75 0 49 -2 54 -32 70 -17 9 -45 30
-62 46 -17 16 -24 24 -15 17 9 -6 37 -14 62 -17z m465 6 c40 -25 72 -75 72
-116 0 -39 -33 -82 -76 -100 -47 -20 -49 -18 -20 17 38 45 36 99 -5 133 -36
30 -76 33 -125 10 -35 -17 -64 -58 -64 -89 0 -33 33 -86 64 -102 18 -9 57 -17
91 -17 51 -1 74 6 151 42 112 52 235 85 287 77 42 -6 107 -37 177 -84 56 -39
80 -39 147 -1 53 30 87 38 97 21 4 -5 -14 -22 -39 -38 -49 -31 -63 -51 -40
-58 49 -16 41 -20 -40 -23 -124 -4 -146 2 -206 56 -52 47 -53 47 -124 47 -65
0 -80 -4 -166 -47 -107 -54 -212 -82 -281 -75 -60 5 -135 50 -162 97 -48 81
-11 205 74 248 58 29 142 30 188 2z m-614 -6 c31 -30 15 -66 -41 -96 -36 -18
-34 -20 -48 49 -5 25 -2 34 17 47 28 20 52 20 72 0z m-305 -61 c25 -11 31 -17
22 -26 -6 -6 -11 -25 -11 -43 0 -24 8 -39 33 -58 50 -40 61 -52 81 -88 13 -23
-6 -9 -68 52 -58 57 -97 106 -121 151 -19 37 -35 70 -35 74 0 4 15 -6 33 -21
17 -15 47 -33 66 -41z m1307 -14 c12 -24 12 -26 -9 -22 -12 2 -48 0 -80 -5
-52 -8 -59 -7 -68 10 -15 28 -2 38 50 38 26 0 56 6 67 14 14 11 20 11 23 3 2
-7 10 -24 17 -38z m-1139 29 c5 -7 15 -38 22 -70 17 -81 79 -202 146 -286 58
-73 169 -172 192 -172 29 0 9 36 -51 91 -93 86 -135 195 -102 272 12 31 20 37
45 37 37 0 47 -26 26 -66 -34 -66 -2 -224 46 -224 25 0 24 20 -2 64 -39 67 -9
180 37 134 14 -14 14 -23 4 -71 -12 -50 -11 -59 9 -99 11 -24 21 -52 21 -62 0
-48 61 -110 155 -159 28 -14 45 -26 38 -27 -33 -1 -189 58 -278 105 -72 38
-131 61 -210 80 -176 43 -203 43 -269 6 -63 -37 -104 -36 -131 2 -15 22 -15
22 32 27 35 4 49 10 51 22 3 15 -9 18 -107 20 l-111 3 25 37 c58 85 233 73
443 -29 102 -50 110 -36 34 60 -33 42 -70 94 -83 117 -13 22 -38 49 -56 60
-38 22 -51 46 -34 63 9 9 18 4 37 -21 14 -17 32 -32 40 -32 18 0 18 29 -1 54
-18 24 -19 63 -2 69 20 8 24 8 34 -5z m293 -64 c0 -21 -5 -24 -37 -24 -46 1
-77 35 -67 74 l6 24 49 -25 c38 -20 49 -31 49 -49z m402 19 c28 -25 22 -57
-17 -92 -20 -17 -40 -31 -44 -31 -13 0 -61 59 -61 74 0 28 48 65 84 66 11 0
28 -7 38 -17z m-523 -51 c10 -20 -6 -54 -39 -79 -23 -19 -27 -16 -40 23 -10
30 -9 38 6 55 22 24 60 25 73 1z m1191 -52 l13 -24 -27 17 c-14 9 -38 25 -52
34 l-26 16 34 11 c30 10 34 9 39 -9 3 -12 12 -32 19 -45z m-480 46 c0 -2 -7
-7 -16 -10 -8 -3 -12 -2 -9 4 6 10 25 14 25 6z m1030 -90 c0 -19 -64 -126 -76
-126 -10 0 9 136 24 164 l15 30 18 -23 c11 -13 19 -33 19 -45z m560 -16 c33
-33 25 -67 -25 -117 -28 -29 -50 -43 -60 -39 -30 11 -110 16 -124 8 -22 -16
-5 -29 48 -36 63 -8 71 -20 29 -42 -37 -19 -98 -22 -203 -10 -87 10 -159 -6
-330 -75 -113 -45 -283 -99 -309 -99 -21 1 48 33 184 85 254 98 462 196 567
267 61 41 144 78 176 78 15 0 36 -9 47 -20z m-1300 -26 c17 -15 29 -29 26 -31
-6 -7 -92 33 -100 46 -14 22 43 11 74 -15z m-1017 -11 c5 -26 4 -26 -9 -9 -7
10 -11 23 -8 27 8 14 11 11 17 -18z m887 18 c0 -16 -63 -49 -105 -56 -39 -6
-38 -5 25 29 70 38 80 41 80 27z m-542 -96 c10 -25 19 -35 30 -33 10 2 16 11
16 21 -1 9 4 17 12 17 10 0 14 -14 14 -47 0 -30 10 -68 26 -102 24 -53 24 -54
3 -35 -12 10 -39 45 -61 76 -21 32 -52 65 -68 73 -35 18 -60 52 -60 82 l0 23
38 -19 c26 -13 41 -30 50 -56z m595 23 c-20 -22 -29 -23 -37 -2 -10 26 12 46
34 31 18 -10 18 -13 3 -29z m543 -21 l27 -24 -33 -48 c-66 -96 -154 -178 -229
-214 -39 -19 -73 -32 -76 -29 -3 2 3 20 12 39 17 33 19 69 10 239 l-2 35 68 3
69 3 -7 -43 c-10 -59 -36 -117 -74 -160 -55 -63 -32 -96 26 -35 42 44 72 107
85 179 8 46 15 62 32 68 36 15 64 11 92 -13z m150 -9 c-11 -57 -42 -90 -140
-148 -44 -27 -44 -27 31 79 57 80 78 101 101 101 11 0 13 -8 8 -32z m-746 -35
c0 -19 -7 -17 -47 14 -31 24 -33 28 -17 34 21 7 64 -25 64 -48z m130 22 c-35
-19 -65 -35 -67 -35 -11 0 0 27 19 47 16 18 32 23 67 23 l46 0 -65 -35z m-267
-1 c110 -57 151 -144 112 -242 -24 -59 -94 -89 -168 -73 -20 5 -60 26 -89 47
-42 31 -48 40 -33 43 11 2 25 7 31 12 7 6 18 1 30 -12 47 -52 123 -64 180 -28
20 12 34 29 34 40 0 25 -32 25 -55 -1 -27 -29 -74 -26 -115 9 -35 28 -35 29
-31 104 1 43 -2 84 -9 96 -10 20 -8 21 35 21 25 0 60 -7 78 -16z m-230 -52
c29 -54 57 -69 57 -29 -1 12 -7 33 -15 47 -19 34 -18 40 5 40 27 0 40 -30 40
-95 0 -46 -4 -60 -24 -80 -36 -36 -59 -23 -95 50 -57 115 -27 177 32 67z m639
-72 c2 -46 -2 -87 -11 -107 -17 -41 -64 -71 -123 -79 -38 -5 -49 -3 -72 18
-25 21 -29 31 -28 81 1 94 54 158 162 196 l55 20 7 -27 c5 -15 9 -61 10 -102z
m-816 28 c34 -55 67 -91 127 -139 27 -22 46 -39 43 -39 -16 0 -122 53 -161 81
-45 33 -88 100 -78 125 10 28 43 14 69 -28z m578 17 c-4 -8 -10 -12 -15 -9
-11 6 -2 24 11 24 5 0 7 -7 4 -15z m-775 -157 c19 -11 18 -13 -9 -30 -17 -10
-39 -38 -51 -63 -12 -25 -25 -48 -30 -51 -5 -3 -9 24 -9 60 0 56 3 67 22 80
27 19 52 20 77 4z m1523 -38 c39 -11 58 -34 58 -69 0 -30 -17 -34 -53 -13 -32
20 -108 44 -182 58 l-40 7 40 13 c50 16 128 17 177 4z m-1391 -22 c22 -6 39
-14 39 -18 0 -3 -19 -16 -42 -28 -24 -12 -59 -35 -79 -52 -32 -28 -39 -30 -62
-19 -32 15 -33 19 -8 68 30 58 75 72 152 49z m629 -20 c0 -5 -9 -8 -20 -8 -18
0 -19 3 -8 20 9 14 14 16 20 7 4 -7 8 -15 8 -19z m370 -53 c0 -43 -1 -45 -30
-45 -29 0 -30 2 -30 45 0 43 1 45 30 45 29 0 30 -2 30 -45z m-100 -30 l0 -65
-295 0 -295 0 0 53 0 52 248 1 c199 1 305 8 340 23 1 1 2 -28 2 -64z m352 50
c37 -7 79 -20 95 -28 l27 -15 -54 -16 c-79 -24 -99 -20 -169 29 l-65 45 50 0
c27 0 79 -7 116 -15z m-998 -1 c11 -4 16 -19 16 -50 l0 -44 -40 0 -40 0 0 50
c0 46 2 50 24 50 13 0 31 -3 40 -6z m586 -159 c0 -3 -7 -21 -15 -41 l-14 -34
-197 2 -197 3 -13 38 -13 37 225 0 c123 0 224 -2 224 -5z"/>
<path d="M5052 6718 c-21 -21 -14 -38 16 -36 15 1 39 -6 54 -16 28 -18 48 -15
48 9 0 15 -63 55 -89 55 -9 0 -22 -5 -29 -12z"/>
<path d="M4819 6125 c-61 -22 -116 -54 -122 -70 -10 -24 26 -19 103 15 38 17
79 30 93 30 49 0 35 -14 -35 -36 -129 -39 -212 -71 -216 -83 -5 -16 51 -37
151 -57 81 -16 88 -16 112 0 14 9 30 29 36 44 25 69 46 100 59 92 17 -11 30
-4 30 15 0 22 -93 65 -137 64 -21 0 -54 -6 -74 -14z m28 -138 l-2 -34 -40 9
c-62 13 -63 14 -15 36 59 27 59 27 57 -11z"/>
<path d="M4906 5711 c-36 -38 -34 -90 6 -108 14 -7 33 -10 42 -7 24 9 15 38
-12 42 -28 4 -28 17 3 54 14 16 25 34 25 39 0 19 -37 8 -64 -20z"/>
<path d="M4540 4350 c-24 -15 2 -32 57 -37 38 -4 53 -11 75 -37 21 -24 29 -28
39 -19 16 16 -1 56 -33 76 -28 18 -119 29 -138 17z"/>
<path d="M4795 4317 c-4 -14 -4 -31 0 -36 10 -17 35 -13 35 5 0 13 7 15 29 11
20 -4 33 -1 42 9 17 20 7 26 -50 32 -47 4 -50 3 -56 -21z"/>
<path d="M4782 4234 c-25 -18 -29 -46 -7 -64 23 -19 18 -40 -9 -40 -25 0 -51
-22 -39 -33 3 -4 18 -7 31 -7 24 0 24 -1 8 -19 -18 -19 -12 -51 9 -51 7 0 15
6 18 14 3 8 18 16 34 18 34 4 37 30 4 38 -21 5 -22 7 -7 19 20 17 21 41 2 67
-9 11 -12 30 -9 47 6 31 -3 34 -35 11z"/>
<path d="M4669 4209 c-11 -8 -10 -13 9 -28 12 -11 22 -26 22 -35 0 -8 4 -17 9
-21 13 -7 41 23 41 44 0 22 -61 53 -81 40z"/>
<path d="M5052 4441 c-21 -13 -10 -46 16 -49 27 -4 40 22 22 43 -14 17 -20 18
-38 6z"/>
<path d="M3917 3813 c-16 -15 -6 -33 18 -33 38 0 66 -33 59 -70 -5 -23 -3 -30
9 -30 44 0 44 85 0 120 -25 19 -73 27 -86 13z"/>
<path d="M4246 3739 c-20 -16 -26 -29 -26 -60 0 -37 3 -41 37 -56 33 -13 41
-13 63 -1 14 7 26 24 28 36 4 26 -5 28 -35 7 -25 -17 -53 -10 -53 13 0 9 12
26 27 37 15 13 23 27 19 33 -11 18 -30 15 -60 -9z"/>
<path d="M1386 2778 c4 -7 61 -90 126 -184 l118 -171 0 -251 c0 -282 11 -364
60 -471 107 -228 314 -341 625 -341 307 0 521 115 621 334 57 126 57 124 61
629 l4 467 -235 0 -235 0 -3 -432 c-3 -383 -6 -438 -21 -478 -35 -88 -96 -130
-190 -130 -82 0 -135 32 -172 105 l-30 59 -3 438 -3 438 -365 0 c-289 0 -364
-3 -358 -12z"/>
<path d="M3210 2090 l0 -700 240 0 240 0 0 220 0 220 290 0 290 0 0 185 0 185
-290 0 -290 0 0 110 0 110 330 0 330 0 0 185 0 185 -570 0 -570 0 0 -700z"/>
<path d="M4490 2091 l0 -701 240 0 240 0 0 175 0 176 62 -3 62 -3 116 -170
116 -170 258 -3 c205 -2 257 0 253 10 -2 7 -66 102 -141 211 -75 110 -136 202
-136 206 0 3 16 15 35 25 46 25 137 121 164 174 71 139 68 357 -7 495 -61 112
-192 206 -349 249 -73 20 -106 22 -495 26 l-418 4 0 -701z m755 304 c88 -44
110 -172 41 -241 -42 -42 -89 -54 -213 -54 l-103 0 0 161 0 161 118 -4 c89 -3
126 -9 157 -23z"/>
<path d="M5850 2784 c0 -3 55 -86 123 -185 l122 -179 168 0 168 0 -3 -272 c-4
-392 13 -372 -314 -376 -129 -2 -234 -5 -234 -8 0 -2 57 -88 127 -189 l127
-185 166 0 c327 1 449 51 532 222 61 124 61 128 65 676 l4 502 -525 0 c-289 0
-526 -3 -526 -6z"/>
</g>
</svg>
